<svg width="23" height="23" viewBox="0 0 23 23" fill="none" xmlns="http://www.w3.org/2000/svg">
<path d="M21.2369 11.05L12.0653 20.24C10.9418 21.3659 9.41784 21.9984 7.82884 21.9984C6.23984 21.9984 4.71593 21.3659 3.59234 20.24C2.46875 19.1142 1.83752 17.5872 1.83752 15.995C1.83752 14.4029 2.46875 12.8759 3.59234 11.75L12.7639 2.56004C13.513 1.80948 14.5289 1.38782 15.5883 1.38782C16.6476 1.38782 17.6635 1.80948 18.4126 2.56004C19.1617 3.3106 19.5825 4.32859 19.5825 5.39004C19.5825 6.4515 19.1617 7.46948 18.4126 8.22004L9.23103 17.41C8.8565 17.7853 8.34853 17.9962 7.81886 17.9962C7.28919 17.9962 6.78122 17.7853 6.40669 17.41C6.03216 17.0348 5.82175 16.5258 5.82175 15.995C5.82175 15.4643 6.03216 14.9553 6.40669 14.58L14.8797 6.10004" stroke="url(#paint0_linear)" stroke-width="2" stroke-linecap="round" stroke-linejoin="round"/>
<defs>
<linearGradient id="paint0_linear" x1="11.5372" y1="1.38782" x2="11.5372" y2="21.9984" gradientUnits="userSpaceOnUse">
<stop offset="0.0104167" stop-color="#584B90"/>
<stop offset="0.9999" stop-color="#9E579D"/>
<stop offset="1" stop-color="#9E579D"/>
</linearGradient>
</defs>
</svg>
