<svg width="26" height="26" viewBox="0 0 26 26" fill="none" xmlns="http://www.w3.org/2000/svg">
<path d="M19.2262 19.7064C19.6163 20.0973 20.2495 20.0979 20.6404 19.7078C21.0313 19.3177 21.032 18.6845 20.6418 18.2936L19.2262 19.7064ZM14.944 14L15.6519 13.2936C15.4643 13.1056 15.2096 13 14.944 13C14.6785 13 14.4238 13.1056 14.2362 13.2936L14.944 14ZM3.96609 8H17.9381V6H3.96609V8ZM17.9381 8C18.4862 8 18.934 8.44582 18.934 9H20.934C20.934 7.34504 19.5946 6 17.9381 6V8ZM18.934 9V23H20.934V9H18.934ZM18.934 23C18.934 23.5542 18.4862 24 17.9381 24V26C19.5946 26 20.934 24.655 20.934 23H18.934ZM17.9381 24H3.96609V26H17.9381V24ZM3.96609 24C3.4179 24 2.97009 23.5542 2.97009 23H0.970093C0.970093 24.655 2.30956 26 3.96609 26V24ZM2.97009 23V9H0.970093V23H2.97009ZM2.97009 9C2.97009 8.44582 3.4179 8 3.96609 8V6C2.30956 6 0.970093 7.34504 0.970093 9H2.97009ZM7.95603 12.5C7.95603 12.778 7.73163 13 7.45903 13V15C8.83997 15 9.95603 13.8788 9.95603 12.5H7.95603ZM7.45903 13C7.18644 13 6.96204 12.778 6.96204 12.5H4.96204C4.96204 13.8788 6.07809 15 7.45903 15V13ZM6.96204 12.5C6.96204 12.222 7.18644 12 7.45903 12V10C6.07809 10 4.96204 11.1212 4.96204 12.5H6.96204ZM7.45903 12C7.73163 12 7.95603 12.222 7.95603 12.5H9.95603C9.95603 11.1212 8.83997 10 7.45903 10V12ZM20.6418 18.2936L15.6519 13.2936L14.2362 14.7064L19.2262 19.7064L20.6418 18.2936ZM14.2362 13.2936L3.25827 24.2936L4.6739 25.7064L15.6519 14.7064L14.2362 13.2936ZM19.7665 0V4H21.7665V0H19.7665ZM19.7665 4V8H21.7665V4H19.7665ZM16.2665 5H20.7665V3H16.2665V5ZM20.7665 5H25.2665V3H20.7665V5Z" fill="url(#paint0_linear)"/>
<defs>
<linearGradient id="paint0_linear" x1="14" y1="1" x2="13" y2="23" gradientUnits="userSpaceOnUse">
<stop stop-color="#584B90"/>
<stop offset="0.9999" stop-color="#9E579D"/>
<stop offset="1" stop-color="#9E579D"/>
</linearGradient>
</defs>
</svg>
