<svg width="20" height="20" viewBox="0 0 20 20" fill="none" xmlns="http://www.w3.org/2000/svg">
<path d="M3 19H17C18.1046 19 19 18.1046 19 17V3C19 1.89543 18.1046 1 17 1H3C1.89543 1 1 1.89543 1 3V17C1 18.1046 1.89543 19 3 19ZM3 19L14 8L19 13M8 6.5C8 7.32843 7.32843 8 6.5 8C5.67157 8 5 7.32843 5 6.5C5 5.67157 5.67157 5 6.5 5C7.32843 5 8 5.67157 8 6.5Z" stroke="url(#paint0_linear)" stroke-width="2" stroke-linecap="round" stroke-linejoin="round"/>
<defs>
<linearGradient id="paint0_linear" x1="11" y1="8" x2="11" y2="19" gradientUnits="userSpaceOnUse">
<stop stop-color="#584B90"/>
<stop offset="0.9999" stop-color="#9E579D"/>
<stop offset="1" stop-color="#9E579D"/>
</linearGradient>
</defs>
</svg>
