<svg width="30" height="26" viewBox="0 0 30 26" fill="none" xmlns="http://www.w3.org/2000/svg">
<path d="M20.5913 23.7206V21.3383C20.5913 20.0746 20.0893 18.8627 19.1957 17.9691C18.3022 17.0756 17.0903 16.5736 15.8266 16.5736H6.29718C5.0335 16.5736 3.82158 17.0756 2.92802 17.9691C2.03447 18.8627 1.53247 20.0746 1.53247 21.3383V23.7206M27.7383 23.7206V21.3383C27.7375 20.2826 27.3862 19.257 26.7394 18.4226C26.0926 17.5883 25.187 16.9923 24.1648 16.7284M19.4001 2.43426C20.425 2.69668 21.3334 3.29274 21.9821 4.12848C22.6308 4.96422 22.983 5.9921 22.983 7.05007C22.983 8.10804 22.6308 9.13591 21.9821 9.97165C21.3334 10.8074 20.425 11.4035 19.4001 11.6659M15.8265 7.04413C15.8265 9.6756 13.6933 11.8088 11.0618 11.8088C8.43036 11.8088 6.29713 9.6756 6.29713 7.04413C6.29713 4.41265 8.43036 2.27942 11.0618 2.27942C13.6933 2.27942 15.8265 4.41265 15.8265 7.04413Z" stroke="url(#paint0_linear)" stroke-width="3" stroke-linecap="round" stroke-linejoin="round"/>
<defs>
<linearGradient id="paint0_linear" x1="21.1916" y1="2.43427" x2="21.1916" y2="11.6659" gradientUnits="userSpaceOnUse">
<stop offset="0.0104167" stop-color="#584B90"/>
<stop offset="0.9999" stop-color="#9E579D"/>
<stop offset="1" stop-color="#9E579D"/>
</linearGradient>
</defs>
</svg>
