<svg width="26" height="26" viewBox="0 0 26 26" fill="none" xmlns="http://www.w3.org/2000/svg">
<path d="M23.7206 12.4044C23.7247 13.9766 23.3574 15.5275 22.6485 16.9309C21.8081 18.6125 20.516 20.0269 18.9171 21.0157C17.3182 22.0045 15.4756 22.5287 13.5956 22.5294C12.0234 22.5335 10.4725 22.1662 9.06913 21.4573L2.27942 23.7206L4.54265 16.9309C3.83382 15.5275 3.4665 13.9766 3.4706 12.4044C3.47132 10.5244 3.99544 8.68179 4.98425 7.08287C5.97305 5.48395 7.38749 4.19191 9.06913 3.35145C10.4725 2.64262 12.0234 2.27529 13.5956 2.27939H14.1912C16.674 2.41637 19.0191 3.46433 20.7774 5.22262C22.5357 6.98091 23.5836 9.32598 23.7206 11.8088V12.4044Z" stroke="url(#paint0_linear)" stroke-width="3" stroke-linecap="round" stroke-linejoin="round"/>
<defs>
<linearGradient id="paint0_linear" x1="13" y1="2.27936" x2="13" y2="23.7206" gradientUnits="userSpaceOnUse">
<stop offset="0.0104167" stop-color="#584B90"/>
<stop offset="0.9999" stop-color="#9E579D"/>
<stop offset="1" stop-color="#9E579D"/>
</linearGradient>
</defs>
</svg>
