<svg width="29" height="30" viewBox="0 0 29 30" fill="none" xmlns="http://www.w3.org/2000/svg">
<path d="M14.6824 18.5735C16.6121 18.5735 18.1765 16.9736 18.1765 15C18.1765 13.0264 16.6121 11.4265 14.6824 11.4265C12.7526 11.4265 11.1882 13.0264 11.1882 15C11.1882 16.9736 12.7526 18.5735 14.6824 18.5735Z" stroke="url(#paint0_linear)" stroke-width="3" stroke-linecap="round" stroke-linejoin="round"/>
<path d="M23.3012 18.5735C23.1462 18.9328 23.0999 19.3313 23.1684 19.7177C23.2369 20.1041 23.417 20.4607 23.6855 20.7414L23.7554 20.8129C23.972 21.0342 24.1438 21.2969 24.2611 21.5861C24.3783 21.8753 24.4386 22.1854 24.4386 22.4984C24.4386 22.8115 24.3783 23.1215 24.2611 23.4107C24.1438 23.6999 23.972 23.9627 23.7554 24.1839C23.5391 24.4054 23.2822 24.5812 22.9994 24.7011C22.7166 24.8209 22.4135 24.8827 22.1074 24.8827C21.8013 24.8827 21.4981 24.8209 21.2153 24.7011C20.9326 24.5812 20.6757 24.4054 20.4593 24.1839L20.3894 24.1125C20.1149 23.8379 19.7663 23.6536 19.3885 23.5836C19.0106 23.5135 18.621 23.5608 18.2697 23.7194C17.9252 23.8704 17.6314 24.1211 17.4244 24.4407C17.2175 24.7603 17.1065 25.1348 17.105 25.5181V25.7206C17.105 26.3524 16.8595 26.9584 16.4227 27.4051C15.9858 27.8519 15.3933 28.1029 14.7755 28.1029C14.1577 28.1029 13.5653 27.8519 13.1284 27.4051C12.6916 26.9584 12.4461 26.3524 12.4461 25.7206V25.6134C12.4371 25.2191 12.3123 24.8367 12.088 24.5159C11.8637 24.1951 11.5502 23.9508 11.1883 23.8147C10.837 23.6561 10.4473 23.6088 10.0695 23.6789C9.69163 23.7489 9.34299 23.9332 9.06849 24.2078L8.99861 24.2792C8.78227 24.5007 8.52536 24.6765 8.24257 24.7964C7.95979 24.9162 7.65667 24.978 7.35055 24.978C7.04443 24.978 6.74131 24.9162 6.45852 24.7964C6.17574 24.6765 5.91883 24.5007 5.70249 24.2792C5.48591 24.058 5.31409 23.7952 5.19687 23.506C5.07964 23.2168 5.0193 22.9068 5.0193 22.5937C5.0193 22.2806 5.07964 21.9706 5.19687 21.6814C5.31409 21.3922 5.48591 21.1295 5.70249 20.9082L5.77237 20.8367C6.04088 20.556 6.221 20.1994 6.28951 19.813C6.35801 19.4266 6.31176 19.0281 6.15672 18.6688C6.00908 18.3165 5.76393 18.016 5.45145 17.8044C5.13897 17.5927 4.7728 17.4791 4.39802 17.4776H4.20002C3.58222 17.4776 2.98972 17.2266 2.55287 16.7798C2.11602 16.3331 1.87061 15.7271 1.87061 15.0953C1.87061 14.4634 2.11602 13.8575 2.55287 13.4107C2.98972 12.9639 3.58222 12.7129 4.20002 12.7129H4.30484C4.69035 12.7037 5.06423 12.5761 5.37788 12.3466C5.69153 12.1172 5.93044 11.7966 6.06355 11.4264C6.21859 11.0672 6.26484 10.6686 6.19633 10.2822C6.12782 9.8958 5.9477 9.53924 5.67919 9.2585L5.60931 9.18703C5.39273 8.96578 5.22092 8.70303 5.10369 8.41382C4.98646 8.1246 4.92613 7.8146 4.92613 7.50152C4.92613 7.18844 4.98646 6.87843 5.10369 6.58922C5.22092 6.30001 5.39273 6.03726 5.60931 5.816C5.82565 5.5945 6.08256 5.41878 6.36535 5.29889C6.64813 5.179 6.95125 5.11729 7.25737 5.11729C7.56349 5.11729 7.86661 5.179 8.1494 5.29889C8.43218 5.41878 8.68909 5.5945 8.90543 5.816L8.97531 5.88747C9.24981 6.16208 9.59845 6.3463 9.97627 6.41636C10.3541 6.48643 10.7438 6.43913 11.0951 6.28056H11.1883C11.5327 6.12957 11.8265 5.87885 12.0335 5.55926C12.2404 5.23968 12.3515 4.86519 12.353 4.48189V4.27939C12.353 3.64755 12.5984 3.04159 13.0352 2.59481C13.4721 2.14803 14.0646 1.89703 14.6824 1.89703C15.3002 1.89703 15.8927 2.14803 16.3295 2.59481C16.7664 3.04159 17.0118 3.64755 17.0118 4.27939V4.38659C17.0133 4.7699 17.1243 5.14439 17.3313 5.46397C17.5382 5.78355 17.832 6.03427 18.1765 6.18527C18.5278 6.34383 18.9175 6.39113 19.2953 6.32107C19.6731 6.251 20.0218 6.06679 20.2963 5.79218L20.3661 5.72071C20.5825 5.49921 20.8394 5.32349 21.1222 5.2036C21.405 5.08371 21.7081 5.022 22.0142 5.022C22.3203 5.022 22.6234 5.08371 22.9062 5.2036C23.189 5.32349 23.4459 5.49921 23.6623 5.72071C23.8788 5.94197 24.0506 6.20471 24.1679 6.49393C24.2851 6.78314 24.3454 7.09315 24.3454 7.40622C24.3454 7.7193 24.2851 8.02931 24.1679 8.31852C24.0506 8.60774 23.8788 8.87048 23.6623 9.09174L23.5924 9.16321C23.3239 9.44395 23.1437 9.80051 23.0752 10.1869C23.0067 10.5733 23.053 10.9719 23.208 11.3312V11.4264C23.3557 11.7788 23.6008 12.0792 23.9133 12.2909C24.2258 12.5025 24.5919 12.6161 24.9667 12.6176H25.1647C25.7825 12.6176 26.375 12.8686 26.8119 13.3154C27.2487 13.7622 27.4941 14.3681 27.4941 15C27.4941 15.6318 27.2487 16.2378 26.8119 16.6846C26.375 17.1313 25.7825 17.3823 25.1647 17.3823H25.0599C24.6851 17.3839 24.3189 17.4974 24.0065 17.7091C23.694 17.9207 23.4488 18.2212 23.3012 18.5735Z" stroke="url(#paint1_linear)" stroke-width="3" stroke-linecap="round" stroke-linejoin="round"/>
<defs>
<linearGradient id="paint0_linear" x1="14.6824" y1="1.89703" x2="14.6824" y2="28.1029" gradientUnits="userSpaceOnUse">
<stop offset="0.0104167" stop-color="#584B90"/>
<stop offset="0.9999" stop-color="#9E579D"/>
<stop offset="1" stop-color="#9E579D"/>
</linearGradient>
<linearGradient id="paint1_linear" x1="14.6824" y1="1.89703" x2="14.6824" y2="28.1029" gradientUnits="userSpaceOnUse">
<stop offset="0.0104167" stop-color="#584B90"/>
<stop offset="0.9999" stop-color="#9E579D"/>
<stop offset="1" stop-color="#9E579D"/>
</linearGradient>
</defs>
</svg>
